<svg id="Layer_1" data-name="Layer 1" xmlns="http://www.w3.org/2000/svg" viewBox="0 0 512 512"><defs><style>.cls-1{fill:#495875;}.cls-2{fill:#2686ef;}</style></defs><title>gesture-50-filled</title><path class="cls-1" d="M295.72,193.52H160l17.94-17.93c14-14,15.41-36.61,3.19-51.4a37.75,37.75,0,0,0-55.86-2.72L68.8,177.92a52.93,52.93,0,0,1-37.66,15.59H13.84A13.84,13.84,0,0,0,0,207.36V370.84a13.84,13.84,0,0,0,13.84,13.84h33A110.85,110.85,0,0,1,85,391.47l9.8,3.59a106.85,106.85,0,0,0,36.84,6.54h44.67c19.09,0,35.43-14.43,37.2-32.86A36.65,36.65,0,0,0,211.21,352a35.84,35.84,0,0,0,17.69-42.91c13-4.8,22.78-16.51,24.11-30.52a36.63,36.63,0,0,0-.91-12.24h42.64c19.1,0,35.43-14.44,37.19-32.86a36.39,36.39,0,0,0-36.22-39.92Zm8.66,37.29c-.41,4.3-4.73,7.81-9.64,7.81H205.52a13.84,13.84,0,1,0,0,27.68h11.27a8.72,8.72,0,0,1,8.67,9.61c-.41,4.3-4.73,7.81-9.64,7.81H183a13.84,13.84,0,0,0,0,27.68h11.28a8.72,8.72,0,0,1,8.67,9.61c-.41,4.31-4.74,7.82-9.64,7.82H166.05a13.84,13.84,0,1,0,0,27.68h11.28a8.72,8.72,0,0,1,8.67,9.61c-.41,4.31-4.74,7.82-9.64,7.82H131.69a79.32,79.32,0,0,1-27.33-4.85l-9.79-3.59A138.43,138.43,0,0,0,46.8,357H27.68V221.19h3.47a80.4,80.4,0,0,0,57.22-23.7L144.83,141a9.69,9.69,0,0,1,7.61-2.94,10,10,0,0,1,7.34,3.72c3.19,3.86,2.55,10.23-1.43,14.21l-23.81,23.8a24.24,24.24,0,0,0,17.14,41.37h144a8.72,8.72,0,0,1,8.66,9.61Z"/><path class="cls-2" d="M509.68,235.37c.12-.17.22-.35.32-.53s.26-.41.37-.63.19-.39.28-.58.21-.43.3-.65.14-.39.22-.59.17-.45.24-.69.1-.4.16-.61.12-.47.17-.7.07-.48.11-.72.07-.41.09-.62c0-.45.07-.91.07-1.36h0c0-.46,0-.91-.07-1.37,0-.21-.06-.41-.09-.62s-.06-.48-.11-.72-.11-.47-.17-.7-.1-.41-.16-.61-.16-.46-.24-.69-.14-.4-.22-.59-.2-.43-.3-.64-.18-.39-.28-.58-.24-.42-.37-.63-.21-.36-.32-.53-.34-.48-.52-.71-.18-.25-.28-.38a14,14,0,0,0-.94-1l-41.5-41.5A13.84,13.84,0,1,0,446.86,196l17.89,17.89h-77.3a13.84,13.84,0,1,0,0,27.68h77.3l-17.89,17.89A13.84,13.84,0,1,0,466.43,279l41.5-41.5a14,14,0,0,0,.94-1c.1-.12.19-.25.28-.38S509.51,235.61,509.68,235.37Z"/></svg>